<svg id="Layer_1" data-name="Layer 1" xmlns="http://www.w3.org/2000/svg" xmlns:xlink="http://www.w3.org/1999/xlink" viewBox="0 0 899.34 569.26"><defs><style>.cls-1,.cls-20,.cls-22,.cls-23{fill:none;}.cls-2{clip-path:url(#clip-path);}.cls-3,.cls-4{font-size:29.42px;}.cls-3,.cls-31,.cls-41,.cls-7{font-family:CambriaMath, Cambria Math;}.cls-32,.cls-4,.cls-42,.cls-8{font-family:Calibri;}.cls-5{font-size:50px;}.cls-14,.cls-16,.cls-19,.cls-21,.cls-5{fill:#231f20;}.cls-14,.cls-16,.cls-19,.cls-5{font-family:TimesNewRomanPSMT, Times New Roman;}.cls-6{clip-path:url(#clip-path-5);}.cls-7,.cls-8{font-size:28.44px;}.cls-9{clip-path:url(#clip-path-9);}.cls-10{clip-path:url(#clip-path-13);}.cls-11{clip-path:url(#clip-path-17);}.cls-12{clip-path:url(#clip-path-21);}.cls-13{clip-path:url(#clip-path-25);}.cls-14{font-size:25px;}.cls-15{letter-spacing:-0.04em;}.cls-16{font-size:28px;}.cls-17{letter-spacing:-0.02em;}.cls-18{letter-spacing:-0.07em;}.cls-19{font-size:28.1px;}.cls-20,.cls-22,.cls-23{stroke:#231f20;stroke-miterlimit:10;}.cls-22{stroke-dasharray:10.65 10.65;}.cls-23{stroke-dasharray:12.57 12.57;}.cls-24{clip-path:url(#clip-path-29);}.cls-25{clip-path:url(#clip-path-34);}.cls-26{clip-path:url(#clip-path-39);}.cls-27{clip-path:url(#clip-path-44);}.cls-28{clip-path:url(#clip-path-49);}.cls-29{clip-path:url(#clip-path-53);}.cls-30{clip-path:url(#clip-path-57);}.cls-31,.cls-32{font-size:22.06px;}.cls-33{clip-path:url(#clip-path-63);}.cls-34{clip-path:url(#clip-path-67);}.cls-35{clip-path:url(#clip-path-71);}.cls-36{clip-path:url(#clip-path-75);}.cls-37{clip-path:url(#clip-path-79);}.cls-38{clip-path:url(#clip-path-83);}.cls-39{clip-path:url(#clip-path-87);}.cls-40{clip-path:url(#clip-path-93);}.cls-41,.cls-42{font-size:32.69px;}</style><clipPath id="clip-path" transform="translate(-76.91 -392.94)"><rect class="cls-1" x="314.49" y="589.02" width="150" height="194.12"/></clipPath><clipPath id="clip-path-5" transform="translate(-76.91 -392.94)"><rect class="cls-1" x="53.03" y="807.3" width="116" height="150.12"/></clipPath><clipPath id="clip-path-9" transform="translate(-76.91 -392.94)"><rect class="cls-1" x="196.03" y="807.3" width="116" height="150.12"/></clipPath><clipPath id="clip-path-13" transform="translate(-76.91 -392.94)"><rect class="cls-1" x="331.03" y="807.3" width="116" height="150.12"/></clipPath><clipPath id="clip-path-17" transform="translate(-76.91 -392.94)"><rect class="cls-1" x="575.03" y="807.3" width="116" height="150.12"/></clipPath><clipPath id="clip-path-21" transform="translate(-76.91 -392.94)"><rect class="cls-1" x="326.43" y="524.22" width="116" height="150.12"/></clipPath><clipPath id="clip-path-25" transform="translate(-76.91 -392.94)"><rect class="cls-1" x="55.55" y="736.11" width="116" height="150.12"/></clipPath><clipPath id="clip-path-29" transform="translate(-76.91 -392.94)"><rect class="cls-1" x="59.1" y="847.25" width="116" height="150.12"/></clipPath><clipPath id="clip-path-34" transform="translate(-76.91 -392.94)"><rect class="cls-1" x="202.34" y="849.25" width="116" height="150.12"/></clipPath><clipPath id="clip-path-39" transform="translate(-76.91 -392.94)"><rect class="cls-1" x="335.27" y="849.25" width="116" height="150.12"/></clipPath><clipPath id="clip-path-44" transform="translate(-76.91 -392.94)"><rect class="cls-1" x="579.78" y="849.25" width="116" height="150.12"/></clipPath><clipPath id="clip-path-49" transform="translate(-76.91 -392.94)"><rect class="cls-1" x="200.37" y="736.11" width="116" height="150.12"/></clipPath><clipPath id="clip-path-53" transform="translate(-76.91 -392.94)"><rect class="cls-1" x="331.49" y="375.47" width="116" height="150.12"/></clipPath><clipPath id="clip-path-57" transform="translate(-76.91 -392.94)"><rect class="cls-1" x="440.14" y="595.36" width="150" height="194.12"/></clipPath><clipPath id="clip-path-63" transform="translate(-76.91 -392.94)"><rect class="cls-1" x="579.78" y="681.61" width="116" height="150.12"/></clipPath><clipPath id="clip-path-67" transform="translate(-76.91 -392.94)"><rect class="cls-1" x="337.67" y="681.61" width="116" height="150.12"/></clipPath><clipPath id="clip-path-71" transform="translate(-76.91 -392.94)"><rect class="cls-1" x="199.37" y="680.61" width="116" height="150.12"/></clipPath><clipPath id="clip-path-75" transform="translate(-76.91 -392.94)"><rect class="cls-1" x="56.92" y="679.31" width="116" height="150.12"/></clipPath><clipPath id="clip-path-79" transform="translate(-76.91 -392.94)"><rect class="cls-1" x="579.78" y="739.42" width="116" height="150.12"/></clipPath><clipPath id="clip-path-83" transform="translate(-76.91 -392.94)"><rect class="cls-1" x="336.67" y="736.11" width="116" height="150.12"/></clipPath><clipPath id="clip-path-87" transform="translate(-76.91 -392.94)"><rect class="cls-1" x="162.1" y="595.36" width="150" height="194.12"/></clipPath><clipPath id="clip-path-93" transform="translate(-76.91 -392.94)"><rect class="cls-1" x="367.03" y="453.54" width="40" height="51.76"/></clipPath></defs><title>Method Figure 2</title><g class="cls-2"><g class="cls-2"><text class="cls-3" transform="translate(285.52 241.71)">ℎ</text></g><g class="cls-2"><path d="M383.86,640.83a4.26,4.26,0,0,1-1.56-.26,3.14,3.14,0,0,1-1.18-.75,3.52,3.52,0,0,1-.74-1.19,4.56,4.56,0,0,1-.25-1.58,8.19,8.19,0,0,1,.46-2.78,7.12,7.12,0,0,1,1.29-2.25,6.17,6.17,0,0,1,1.94-1.51,5.46,5.46,0,0,1,2.44-.56,4.19,4.19,0,0,1,1.65.31,3.16,3.16,0,0,1,1.18.82,3.38,3.38,0,0,1,.71,1.22,4.62,4.62,0,0,1,.23,1.5,8.21,8.21,0,0,1-.47,2.88,6.78,6.78,0,0,1-1.3,2.22,5.73,5.73,0,0,1-2,1.43A5.82,5.82,0,0,1,383.86,640.83Zm-1.67-3.34a2.66,2.66,0,0,0,.5,1.78,1.89,1.89,0,0,0,1.51.57,2.11,2.11,0,0,0,1.07-.28,3.23,3.23,0,0,0,.92-.75,5.31,5.31,0,0,0,.75-1.1,8.25,8.25,0,0,0,.56-1.36,10.42,10.42,0,0,0,.35-1.49,9.67,9.67,0,0,0,.12-1.5,2.85,2.85,0,0,0-.46-1.77,1.71,1.71,0,0,0-1.44-.6,2.41,2.41,0,0,0-1.1.26,3.45,3.45,0,0,0-1,.73,5.62,5.62,0,0,0-.77,1.08,8.81,8.81,0,0,0-.57,1.36,9.12,9.12,0,0,0-.36,1.5A9.32,9.32,0,0,0,382.19,637.49Zm17.72.6a9.41,9.41,0,0,1-2,2.06,3.49,3.49,0,0,1-2,.68,2.2,2.2,0,0,1-1.67-.58,2.36,2.36,0,0,1-.56-1.69,3.92,3.92,0,0,1,.1-.78c.07-.34.15-.71.25-1.12s.2-.85.31-1.3.22-.88.31-1.3.18-.79.25-1.13a4.09,4.09,0,0,0,.1-.79c0-.51-.21-.76-.63-.76a.91.91,0,0,0-.39.08,2.12,2.12,0,0,0-.4.23c-.14.11-.3.24-.47.4l-.56.57-.71-.68c.37-.38.71-.7,1-1a5.3,5.3,0,0,1,.84-.62,3.14,3.14,0,0,1,.79-.34,3.09,3.09,0,0,1,.83-.11,1.53,1.53,0,0,1,1.21.51,2,2,0,0,1,.45,1.36,6.41,6.41,0,0,1-.09,1,9.57,9.57,0,0,1-.28,1.27c-.26,1-.47,1.8-.63,2.51a8.85,8.85,0,0,0-.23,1.59,1.43,1.43,0,0,0,.25.93.94.94,0,0,0,.79.31,2,2,0,0,0,1-.36,5.54,5.54,0,0,0,1.08-1,7.72,7.72,0,0,0,.91-1.3,5.87,5.87,0,0,0,.59-1.42l1.16-5.25h2.06L402,637a7.16,7.16,0,0,0-.18,1,4.81,4.81,0,0,0-.05.71.89.89,0,0,0,.14.57.58.58,0,0,0,.47.18,1,1,0,0,0,.39-.07,1.85,1.85,0,0,0,.4-.23,4,4,0,0,0,.47-.41c.17-.16.36-.36.57-.59l.72.69a13.08,13.08,0,0,1-1,.92,6.75,6.75,0,0,1-.83.63,3.19,3.19,0,0,1-.79.35,2.85,2.85,0,0,1-.82.11,1.47,1.47,0,0,1-1.17-.48,1.94,1.94,0,0,1-.43-1.34,3.37,3.37,0,0,1,0-.44,1.69,1.69,0,0,1,.12-.44Zm13.49.53a10.86,10.86,0,0,1-1,1,6.13,6.13,0,0,1-.95.69,3.92,3.92,0,0,1-.91.38,3.52,3.52,0,0,1-.92.12,2.61,2.61,0,0,1-1.86-.58,2.28,2.28,0,0,1-.61-1.73,6.65,6.65,0,0,1,.06-.85,8.63,8.63,0,0,1,.16-.91l1.25-5.42h-1.8l.2-.81a3.13,3.13,0,0,0,1-.12,1.73,1.73,0,0,0,.6-.33,2.86,2.86,0,0,0,.3-.36,4,4,0,0,0,.29-.52,6.56,6.56,0,0,0,.3-.72c.1-.27.22-.6.34-1h1.64l-.6,2.66h3.56l-.24,1.17h-3.55l-1.07,4.38c-.07.3-.13.56-.17.79s-.09.45-.11.64,0,.36-.06.51,0,.3,0,.43a1.62,1.62,0,0,0,.27,1,1,1,0,0,0,.85.35,1.92,1.92,0,0,0,1.07-.37,7.15,7.15,0,0,0,1.29-1.17Z" transform="translate(-76.91 -392.94)"/></g><g class="cls-2"><text class="cls-4" transform="translate(339.65 241.71)"> </text></g></g><text class="cls-5" transform="translate(13.85 458.29)">[ ]</text><g class="cls-6"><g class="cls-6"><text class="cls-7" transform="translate(18.81 455.03)"> </text></g><g class="cls-6"><text class="cls-7" transform="translate(25.07 455.03)">⋯</text></g><g class="cls-6"><text class="cls-8" transform="translate(49.43 455.03)"> </text></g></g><text class="cls-5" transform="translate(156.85 458.29)">[ ]</text><g class="cls-9"><g class="cls-9"><text class="cls-7" transform="translate(161.81 455.03)"> </text></g><g class="cls-9"><text class="cls-7" transform="translate(168.07 455.03)">⋯</text></g><g class="cls-9"><text class="cls-8" transform="translate(192.43 455.03)"> </text></g></g><text class="cls-5" transform="translate(291.85 458.29)">[ ]</text><g class="cls-10"><g class="cls-10"><text class="cls-7" transform="translate(296.81 455.03)"> </text></g><g class="cls-10"><text class="cls-7" transform="translate(303.07 455.03)">⋯</text></g><g class="cls-10"><text class="cls-8" transform="translate(327.43 455.03)"> </text></g></g><text class="cls-5" transform="translate(535.85 458.29)">[ ]</text><g class="cls-11"><g class="cls-11"><text class="cls-7" transform="translate(540.82 455.03)"> </text></g><g class="cls-11"><text class="cls-7" transform="translate(547.07 455.03)">⋯</text></g><g class="cls-11"><text class="cls-8" transform="translate(571.43 455.03)"> </text></g></g><text class="cls-5" transform="translate(287.26 175.2)">[ ]</text><g class="cls-12"><g class="cls-12"><text class="cls-7" transform="translate(292.22 171.95)"> </text></g><g class="cls-12"><text class="cls-7" transform="translate(298.47 171.95)">⋯</text></g><g class="cls-12"><text class="cls-8" transform="translate(322.84 171.95)"> </text></g></g><g class="cls-13"><g class="cls-13"><path d="M106.49,770.51c-.14-.73-.29-1.44-.43-2.11s-.3-1.31-.46-1.89a6.78,6.78,0,0,0-.39-1.15.94.94,0,0,0-.33-.37.81.81,0,0,0-.43-.1,1,1,0,0,0-.53.13,2.06,2.06,0,0,0-.52.46,9.49,9.49,0,0,0-.73,1l-.9-.6a8.5,8.5,0,0,1,1.68-2,3.14,3.14,0,0,1,2.66-.56,1.94,1.94,0,0,1,.57.3,2.09,2.09,0,0,1,.45.52,4.11,4.11,0,0,1,.37.87,12.77,12.77,0,0,1,.34,1.36c.11.54.2,1.1.29,1.69h.13c.89-1.25,1.57-2.17,2-2.75a13,13,0,0,1,1.16-1.29,2.7,2.7,0,0,1,2.07-.77,2.92,2.92,0,0,1,1.07.17L114,766h-1c0-.39-.21-.58-.48-.58a.93.93,0,0,0-.27,0,1.64,1.64,0,0,0-.34.18,4.55,4.55,0,0,0-.59.54c-.25.27-.55.6-.87,1l-1,1.22-.94,1.18c.16.89.32,1.66.47,2.31s.28,1.18.39,1.61.22.77.31,1a2.15,2.15,0,0,0,.28.57,1,1,0,0,0,.32.26.83.83,0,0,0,.36.08,1.11,1.11,0,0,0,.73-.3,6.11,6.11,0,0,0,1-1.31l.91.59a8.7,8.7,0,0,1-1.76,2,3,3,0,0,1-1.87.59,2.09,2.09,0,0,1-1-.22,1.82,1.82,0,0,1-.72-.69,4.46,4.46,0,0,1-.54-1.47,20.73,20.73,0,0,1-.53-2.72h-.14q-1.47,2.07-2.19,3a12.3,12.3,0,0,1-1.18,1.34,3.2,3.2,0,0,1-.9.6,3.12,3.12,0,0,1-1.16.17,2.94,2.94,0,0,1-1.07-.16l.56-2.52h1c0,.39.22.59.48.59a.93.93,0,0,0,.41-.11,2.54,2.54,0,0,0,.62-.5c.27-.26.64-.68,1.11-1.24S105.59,771.64,106.49,770.51Z" transform="translate(-76.91 -392.94)"/></g><g class="cls-13"><path d="M121.47,779.91c0,.21,0,.39,0,.54a2,2,0,0,0,.07.39.89.89,0,0,0,.12.26.86.86,0,0,0,.18.2.77.77,0,0,0,.32.18,2.68,2.68,0,0,0,.52.12c.21,0,.46,0,.75.07s.65,0,1.06,0v.88h-8v-.88l1,0c.27,0,.51,0,.71-.07a3,3,0,0,0,.47-.11,1.44,1.44,0,0,0,.31-.13,1.59,1.59,0,0,0,.24-.2.72.72,0,0,0,.16-.27,2.74,2.74,0,0,0,.1-.39,4.73,4.73,0,0,0,0-.58v-7.27a.82.82,0,0,0-.15-.56.56.56,0,0,0-.43-.16,2.23,2.23,0,0,0-.94.32c-.41.22-.94.54-1.6,1a5.06,5.06,0,0,1-.24-.46l-.24-.48,2.49-1.37c.82-.46,1.66-.91,2.5-1.37h.62c0,.37,0,.71,0,1s0,.58,0,.86,0,.55,0,.82Z" transform="translate(-76.91 -392.94)"/></g><g class="cls-13"><text class="cls-8" transform="translate(50.34 383.85)"> </text></g></g><text class="cls-14" transform="translate(0 560.67)"><tspan class="cls-15">W</tspan><tspan x="22.6" y="0">inter</tspan></text><text class="cls-16" transform="translate(666.67 560.67)">Look-up<tspan class="cls-17" x="96.43" y="0"> </tspan><tspan class="cls-18" x="102.92" y="0">T</tspan><tspan x="118.07" y="0">able</tspan></text><text class="cls-16" transform="translate(666.67 382.62)">Optional <tspan x="0" y="28">Convolutional Layer</tspan></text><text class="cls-16" transform="translate(666.67 328.69)">Recursional Layer</text><text class="cls-19" transform="translate(666.67 243.34)">Pooling Layer</text><text class="cls-16" transform="translate(666.67 159.18)">Fully Connected<tspan x="0" y="28">Hidden Layer</tspan></text><text class="cls-16" transform="translate(666.67 98.98)">Activation Layer</text><text class="cls-16" transform="translate(666.67 25.84)">Output</text><text class="cls-14" transform="translate(137.54 560.67)">Hibiscus</text><text class="cls-14" transform="translate(309.52 560.67)">is</text><text class="cls-16" transform="translate(535.87 560.67)">style.</text><text class="cls-14" transform="translate(429.09 560.67)">...</text><line class="cls-20" x1="38.04" y1="513.53" x2="38.04" y2="531.36"/><polygon class="cls-21" points="33.06 514.99 38.04 506.36 43.03 514.99 33.06 514.99"/><text class="cls-16" transform="translate(666.67 496.6)">Embedding Layer</text><line class="cls-20" x1="78.27" y1="314.18" x2="84.27" y2="314.18"/><line class="cls-22" x1="94.92" y1="314.18" x2="132.2" y2="314.18"/><line class="cls-20" x1="137.53" y1="314.18" x2="143.53" y2="314.18"/><polygon class="cls-21" points="79.73 319.17 71.09 314.18 79.73 309.19 79.73 319.17"/><line class="cls-20" x1="136.35" y1="324.67" x2="74.33" y2="324.67"/><polygon class="cls-21" points="134.89 319.68 143.53 324.67 134.89 329.66 134.89 319.68"/><line class="cls-20" x1="93.11" y1="246.15" x2="88.87" y2="250.4"/><line class="cls-23" x1="79.98" y1="259.28" x2="48.87" y2="290.39"/><line class="cls-20" x1="44.43" y1="294.84" x2="40.18" y2="299.08"/><polygon class="cls-21" points="88.55 243.66 98.18 241.08 95.6 250.71 88.55 243.66"/><line class="cls-20" x1="312.11" y1="199.6" x2="312.11" y2="217.42"/><polygon class="cls-21" points="307.13 201.06 312.11 192.42 317.1 201.06 307.13 201.06"/><text class="cls-14" transform="translate(429.09 469.02)">...</text><text class="cls-14" transform="translate(429.09 387.16)">...</text><text class="cls-14" transform="translate(429.09 328.69)">...</text><line class="cls-20" x1="262.26" y1="234.47" x2="256.26" y2="234.47"/><line class="cls-20" x1="239.44" y1="234.47" x2="233.44" y2="234.47"/><polygon class="cls-21" points="260.8 229.48 269.44 234.47 260.8 239.45 260.8 229.48"/><line class="cls-20" x1="312.58" y1="114.82" x2="312.58" y2="132.65"/><polygon class="cls-21" points="307.59 116.28 312.58 107.65 317.56 116.28 307.59 116.28"/><g class="cls-24"><g class="cls-24"><path d="M108.58,869l-1,4.27h-1.33a10.23,10.23,0,0,0-.21-1.82,1.84,1.84,0,0,0-.37-.84,1,1,0,0,0-.51-.31,3.83,3.83,0,0,0-.86-.07H99.82l-1.59,7.27h2.66a2.17,2.17,0,0,0,1.5-.46,5.09,5.09,0,0,0,1-1.54h1.26l-1.24,5.33h-1.18a5.36,5.36,0,0,0-.14-1.5.76.76,0,0,0-.41-.5,3.06,3.06,0,0,0-1-.11H98l-1.78,8h4.11a4.13,4.13,0,0,0,1.3-.16,2.64,2.64,0,0,0,.9-.54,4.55,4.55,0,0,0,.85-1c.28-.45.62-1.06,1-1.83h1.34l-1.22,4.81H92.17l.15-.68a1.85,1.85,0,0,0,.79-.28,1.36,1.36,0,0,0,.45-.52,4.52,4.52,0,0,0,.33-.81c.1-.32.25-.94.46-1.85l2.36-10.69a11.16,11.16,0,0,0,.3-2.24,1.13,1.13,0,0,0-.32-.91,1.92,1.92,0,0,0-1-.3l.16-.68Z" transform="translate(-76.91 -392.94)"/></g><g class="cls-24"><path d="M123.54,885.62a42.81,42.81,0,0,0,3.3-5.38A9.11,9.11,0,0,0,128,876.5a1.12,1.12,0,0,0-.28-.89,1.64,1.64,0,0,0-.94-.28l.13-.68h3.59l.37.7c-.32.82-.58,1.45-.78,1.9s-.44,1-.76,1.6-.65,1.25-1,1.87-.77,1.3-1.24,2-1,1.55-1.61,2.43-1.29,1.86-2.09,2.95h-1.65l-.57-5.81q-.08-.68-.15-1.77c0-.73-.08-1.3-.1-1.7h-.16a35.33,35.33,0,0,1-2,4.11c-.86,1.51-1.92,3.23-3.19,5.18h-1.86l-1.06-10.46a9.5,9.5,0,0,0-.2-1.3,1.43,1.43,0,0,0-.42-.75,1.69,1.69,0,0,0-1-.31l.15-.68h3.64l.83,11q2-3.2,2.83-4.86a20.35,20.35,0,0,0,1.28-2.88,16,16,0,0,0,.64-2.54l.16-.68h2Z" transform="translate(-76.91 -392.94)"/></g><g class="cls-24"><path d="M137,891.05c0,.21,0,.39,0,.54a3.08,3.08,0,0,0,.07.39.89.89,0,0,0,.12.26.86.86,0,0,0,.18.2.91.91,0,0,0,.32.19,3.85,3.85,0,0,0,.52.11c.21,0,.46,0,.76.07s.64,0,1.06,0v.89H132v-.89l1,0c.28,0,.51,0,.71-.07s.35-.07.47-.1a1.8,1.8,0,0,0,.31-.14,1.59,1.59,0,0,0,.24-.2.72.72,0,0,0,.16-.27,1.84,1.84,0,0,0,.1-.39,4.52,4.52,0,0,0,0-.58v-7.27a.77.77,0,0,0-.16-.56.54.54,0,0,0-.43-.16,2.27,2.27,0,0,0-.94.32c-.41.22-.94.54-1.6,1a5.06,5.06,0,0,1-.24-.46l-.23-.48L134,882c.82-.46,1.65-.91,2.5-1.37h.61c0,.37,0,.71,0,1s0,.58,0,.86,0,.55,0,.82Z" transform="translate(-76.91 -392.94)"/></g><g class="cls-24"><text class="cls-8" transform="translate(65.92 494.99)"> </text></g></g><g class="cls-25"><g class="cls-25"><path d="M251.49,871l-1,4.27h-1.34a9.53,9.53,0,0,0-.2-1.82,2.08,2.08,0,0,0-.37-.84,1,1,0,0,0-.52-.31,3.68,3.68,0,0,0-.85-.07h-4.53l-1.58,7.27h2.65a2.2,2.2,0,0,0,1.51-.46,5.09,5.09,0,0,0,1-1.54h1.26l-1.25,5.33h-1.18a5,5,0,0,0-.14-1.5.74.74,0,0,0-.41-.5,3,3,0,0,0-1-.11h-2.77l-1.78,8h4.11a4.13,4.13,0,0,0,1.3-.16,2.64,2.64,0,0,0,.9-.54,4.82,4.82,0,0,0,.85-1c.28-.45.62-1.06,1-1.83h1.35l-1.22,4.81H235.07l.16-.68A1.9,1.9,0,0,0,236,889a1.43,1.43,0,0,0,.44-.52,5.35,5.35,0,0,0,.34-.81c.1-.32.25-.94.45-1.85l2.36-10.69a10.6,10.6,0,0,0,.31-2.24,1.1,1.1,0,0,0-.33-.91,1.85,1.85,0,0,0-1-.3l.15-.68Z" transform="translate(-76.91 -392.94)"/></g><g class="cls-25"><path d="M266.47,887.62a42.81,42.81,0,0,0,3.3-5.38,9.11,9.11,0,0,0,1.13-3.74,1.15,1.15,0,0,0-.28-.89,1.64,1.64,0,0,0-.94-.28l.13-.68h3.59l.37.7c-.32.82-.58,1.45-.78,1.9s-.45,1-.76,1.6-.65,1.25-1,1.87-.77,1.3-1.24,2-1,1.55-1.61,2.43-1.29,1.86-2.09,2.95h-1.65l-.57-5.81q-.07-.68-.15-1.77c-.05-.73-.09-1.3-.1-1.7h-.16a35.33,35.33,0,0,1-2,4.11c-.86,1.51-1.92,3.23-3.19,5.18h-1.86l-1.06-10.46a8,8,0,0,0-.21-1.3,1.36,1.36,0,0,0-.41-.75,1.72,1.72,0,0,0-1-.31l.15-.68h3.64l.83,11q2-3.2,2.83-4.86a20.35,20.35,0,0,0,1.28-2.88,16,16,0,0,0,.64-2.54l.16-.68h2Z" transform="translate(-76.91 -392.94)"/></g><g class="cls-25"><path d="M280.57,894.07a7.56,7.56,0,0,0,.76,0,1.18,1.18,0,0,0,.47-.16.84.84,0,0,0,.32-.37,7.24,7.24,0,0,0,.31-.69h.94c0,.49-.07,1-.1,1.46l-.09,1.45h-8.59v-.53a8,8,0,0,1,.57-1.08,11.4,11.4,0,0,1,.73-1.08,14.32,14.32,0,0,1,.92-1.13c.34-.39.73-.8,1.15-1.21.63-.64,1.15-1.18,1.55-1.63a10.66,10.66,0,0,0,.94-1.2,3.6,3.6,0,0,0,.47-1,3.26,3.26,0,0,0,.13-.95,2.87,2.87,0,0,0-.15-1,2,2,0,0,0-.42-.74,1.72,1.72,0,0,0-.69-.48,2.47,2.47,0,0,0-1-.17,2.44,2.44,0,0,0-1.58.51,3.26,3.26,0,0,0-1,1.48h-1.33v-2a14.34,14.34,0,0,1,2.39-.78,8.69,8.69,0,0,1,2-.25,5.85,5.85,0,0,1,1.8.24,3.52,3.52,0,0,1,1.22.64,2.36,2.36,0,0,1,.67,1,3.53,3.53,0,0,1,.21,1.23,4.23,4.23,0,0,1-.06.73,3.19,3.19,0,0,1-.19.67,3.58,3.58,0,0,1-.36.66,6.39,6.39,0,0,1-.56.71,9.33,9.33,0,0,1-.66.75c-.27.29-.56.59-.89.92l-1,1c-.36.35-.7.7-1,1s-.63.68-.91,1a8.49,8.49,0,0,0-.68.89Z" transform="translate(-76.91 -392.94)"/></g><g class="cls-25"><text class="cls-8" transform="translate(209.49 496.99)"> </text></g></g><line class="cls-20" x1="181.46" y1="513.53" x2="181.46" y2="531.36"/><polygon class="cls-21" points="176.47 514.99 181.46 506.36 186.44 514.99 176.47 514.99"/><g class="cls-26"><g class="cls-26"><path d="M384.41,871l-1,4.27h-1.34a9.53,9.53,0,0,0-.2-1.82,2.08,2.08,0,0,0-.37-.84,1,1,0,0,0-.52-.31,3.73,3.73,0,0,0-.85-.07h-4.53l-1.58,7.27h2.65a2.2,2.2,0,0,0,1.51-.46,5.09,5.09,0,0,0,1-1.54h1.26l-1.25,5.33h-1.18a5.36,5.36,0,0,0-.14-1.5.74.74,0,0,0-.41-.5,3,3,0,0,0-1-.11h-2.77l-1.78,8h4.11a4.13,4.13,0,0,0,1.3-.16,2.64,2.64,0,0,0,.9-.54,5.13,5.13,0,0,0,.85-1c.28-.45.61-1.06,1-1.83h1.35l-1.22,4.81H368l.16-.68A1.9,1.9,0,0,0,369,889a1.43,1.43,0,0,0,.44-.52,4.52,4.52,0,0,0,.33-.81c.11-.32.26-.94.46-1.85l2.36-10.69a10.6,10.6,0,0,0,.31-2.24,1.1,1.1,0,0,0-.33-.91,1.88,1.88,0,0,0-1-.3l.15-.68Z" transform="translate(-76.91 -392.94)"/></g><g class="cls-26"><path d="M399.4,887.62a41.45,41.45,0,0,0,3.29-5.38,9,9,0,0,0,1.14-3.74,1.15,1.15,0,0,0-.28-.89,1.65,1.65,0,0,0-.95-.28l.14-.68h3.59l.37.7c-.32.82-.58,1.45-.78,1.9s-.45,1-.76,1.6-.65,1.25-1,1.87-.77,1.3-1.24,2-1,1.55-1.61,2.43-1.29,1.86-2.09,2.95h-1.66l-.57-5.81c0-.45-.09-1-.14-1.77s-.09-1.3-.1-1.7h-.16a35.33,35.33,0,0,1-2,4.11c-.86,1.51-1.92,3.23-3.19,5.18H389.5l-1.06-10.46a8,8,0,0,0-.21-1.3,1.36,1.36,0,0,0-.41-.75,1.72,1.72,0,0,0-1-.31l.15-.68h3.64l.83,11q2-3.2,2.83-4.86a21.58,21.58,0,0,0,1.28-2.88,16,16,0,0,0,.64-2.54l.15-.68h2Z" transform="translate(-76.91 -392.94)"/></g><g class="cls-26"><path d="M407.88,885.61v-2a14.4,14.4,0,0,1,2.26-.77,8.69,8.69,0,0,1,2-.26,6.68,6.68,0,0,1,1.52.17,3.67,3.67,0,0,1,1.22.53,2.39,2.39,0,0,1,1.1,2.08,3.38,3.38,0,0,1-.19,1.15,2.66,2.66,0,0,1-.56.9,3.86,3.86,0,0,1-.93.73,10.17,10.17,0,0,1-1.28.64v.12a5.09,5.09,0,0,1,1.27.39,3.92,3.92,0,0,1,1,.68,3,3,0,0,1,.7.95,2.73,2.73,0,0,1,.25,1.19,3.72,3.72,0,0,1-.3,1.5,3.33,3.33,0,0,1-.92,1.2,4.27,4.27,0,0,1-1.5.79,6.85,6.85,0,0,1-2.09.29,9.66,9.66,0,0,1-1.91-.19,12.83,12.83,0,0,1-1.85-.49V893H409a4.34,4.34,0,0,0,.38.86,2.17,2.17,0,0,0,.53.59,1.7,1.7,0,0,0,.69.33,3.38,3.38,0,0,0,.88.1,2.81,2.81,0,0,0,2-.62,2.46,2.46,0,0,0,.67-1.89,2.43,2.43,0,0,0-.89-2,4.17,4.17,0,0,0-2.63-.7h-.89v-1a7.77,7.77,0,0,0,1.84-.3,4.1,4.1,0,0,0,1.29-.65,2.49,2.49,0,0,0,.77-.92,2.56,2.56,0,0,0,.26-1.12,2.07,2.07,0,0,0-.58-1.54,2.28,2.28,0,0,0-1.67-.56,2.4,2.4,0,0,0-1.55.5,3.14,3.14,0,0,0-1,1.51Z" transform="translate(-76.91 -392.94)"/></g><g class="cls-26"><text class="cls-8" transform="translate(342.42 496.99)"> </text></g></g><line class="cls-20" x1="316.36" y1="513.53" x2="316.36" y2="531.36"/><polygon class="cls-21" points="311.37 514.99 316.36 506.36 321.35 514.99 311.37 514.99"/><g class="cls-27"><g class="cls-27"><path d="M628.45,871l-1,4.27h-1.34a9.53,9.53,0,0,0-.2-1.82,2.08,2.08,0,0,0-.37-.84,1,1,0,0,0-.52-.31,3.68,3.68,0,0,0-.85-.07h-4.53l-1.58,7.27h2.65a2.2,2.2,0,0,0,1.51-.46,5.09,5.09,0,0,0,1-1.54h1.26l-1.25,5.33h-1.18a5,5,0,0,0-.14-1.5.74.74,0,0,0-.41-.5,3,3,0,0,0-1-.11h-2.77l-1.78,8h4.11a4.13,4.13,0,0,0,1.3-.16,2.64,2.64,0,0,0,.9-.54,4.82,4.82,0,0,0,.85-1c.28-.45.62-1.06,1-1.83h1.35l-1.22,4.81H612l.16-.68A1.9,1.9,0,0,0,613,889a1.43,1.43,0,0,0,.44-.52,5.35,5.35,0,0,0,.34-.81c.1-.32.25-.94.45-1.85l2.36-10.69a10.6,10.6,0,0,0,.31-2.24,1.1,1.1,0,0,0-.33-.91,1.85,1.85,0,0,0-1-.3l.15-.68Z" transform="translate(-76.91 -392.94)"/></g><g class="cls-27"><path d="M643.43,887.62a42.81,42.81,0,0,0,3.3-5.38,9.11,9.11,0,0,0,1.13-3.74,1.15,1.15,0,0,0-.28-.89,1.64,1.64,0,0,0-.94-.28l.13-.68h3.59l.37.7c-.32.82-.58,1.45-.78,1.9s-.45,1-.76,1.6-.65,1.25-1,1.87-.77,1.3-1.24,2-1,1.55-1.61,2.43-1.29,1.86-2.09,2.95H641.6l-.57-5.81q-.07-.68-.15-1.77c0-.73-.09-1.3-.1-1.7h-.16a35.33,35.33,0,0,1-2,4.11c-.86,1.51-1.92,3.23-3.19,5.18h-1.86l-1.06-10.46a9.5,9.5,0,0,0-.2-1.3,1.43,1.43,0,0,0-.42-.75,1.72,1.72,0,0,0-1-.31l.15-.68h3.64l.83,11q2-3.2,2.83-4.86a20.35,20.35,0,0,0,1.28-2.88,16,16,0,0,0,.64-2.54l.16-.68h2Z" transform="translate(-76.91 -392.94)"/></g><g class="cls-27"><path d="M654.57,888.06a8.78,8.78,0,0,1,1.94-2,3.4,3.4,0,0,1,2-.67,2.05,2.05,0,0,1,1.6.58,2.28,2.28,0,0,1,.54,1.62,4.89,4.89,0,0,1-.1.87c-.06.38-.13.78-.23,1.22s-.2.89-.3,1.35-.21.9-.31,1.29-.17.72-.23,1a3.61,3.61,0,0,0-.09.52.92.92,0,0,0,.14.56.57.57,0,0,0,.46.17,1.06,1.06,0,0,0,.38-.07,1.64,1.64,0,0,0,.39-.23,4.58,4.58,0,0,0,.44-.39,7.71,7.71,0,0,0,.55-.57l.7.67c-.33.34-.63.63-.91.87a5.72,5.72,0,0,1-.81.61,3.48,3.48,0,0,1-.77.35,2.78,2.78,0,0,1-.83.12,1.67,1.67,0,0,1-.67-.14,1.74,1.74,0,0,1-.53-.39,1.85,1.85,0,0,1-.35-.59,2.27,2.27,0,0,1-.12-.75,6,6,0,0,1,.09-.95,9.24,9.24,0,0,1,.26-1.19l.34-1.26c.1-.4.19-.77.27-1.12s.14-.64.18-.91a3.7,3.7,0,0,0,.07-.66,1.48,1.48,0,0,0-.24-.93,1,1,0,0,0-.77-.29,1.51,1.51,0,0,0-.65.16,3.64,3.64,0,0,0-.71.43,7,7,0,0,0-.69.66,7.9,7.9,0,0,0-.62.81,7.33,7.33,0,0,0-.51.91,4.23,4.23,0,0,0-.31.93l-1.14,5.1h-2l1.52-6.62c.09-.35.15-.66.2-.94a4.94,4.94,0,0,0,.06-.68c0-.49-.2-.74-.6-.74a1,1,0,0,0-.37.08,1.78,1.78,0,0,0-.4.22,4.78,4.78,0,0,0-.45.39l-.55.55-.7-.66c.34-.35.65-.64.93-.89a6.31,6.31,0,0,1,.8-.61,3.42,3.42,0,0,1,.76-.35,2.9,2.9,0,0,1,.79-.11,1.41,1.41,0,0,1,1.16.49,2,2,0,0,1,.41,1.3,3.19,3.19,0,0,1,0,.42,2.13,2.13,0,0,1-.13.43Z" transform="translate(-76.91 -392.94)"/></g><g class="cls-27"><text class="cls-8" transform="translate(587.43 496.99)"> </text></g></g><line class="cls-20" x1="560.87" y1="513.53" x2="560.87" y2="531.36"/><polygon class="cls-21" points="555.88 514.99 560.87 506.36 565.86 514.99 555.88 514.99"/><g class="cls-28"><g class="cls-28"><path d="M251,770.51c-.14-.73-.28-1.44-.43-2.11s-.3-1.31-.46-1.89a6.78,6.78,0,0,0-.39-1.15,1,1,0,0,0-.32-.37.87.87,0,0,0-.44-.1,1,1,0,0,0-.53.13,1.88,1.88,0,0,0-.51.46,9.27,9.27,0,0,0-.74,1l-.9-.6a8.5,8.5,0,0,1,1.68-2,3.14,3.14,0,0,1,2.66-.56,1.72,1.72,0,0,1,.57.3,2.09,2.09,0,0,1,.45.52,4.11,4.11,0,0,1,.37.87,10.74,10.74,0,0,1,.34,1.36c.11.54.2,1.1.29,1.69h.14c.89-1.25,1.56-2.17,2-2.75a11.88,11.88,0,0,1,1.16-1.29,2.87,2.87,0,0,1,.91-.59,3.07,3.07,0,0,1,1.16-.18,2.87,2.87,0,0,1,1.06.17l-.55,2.51h-1c-.06-.39-.22-.58-.49-.58a.82.82,0,0,0-.26,0,1.26,1.26,0,0,0-.34.18,4,4,0,0,0-.59.54c-.26.27-.55.6-.88,1l-1,1.22-.94,1.18c.17.89.32,1.66.47,2.31s.28,1.18.4,1.61.21.77.3,1a1.88,1.88,0,0,0,.29.57.92.92,0,0,0,.31.26.87.87,0,0,0,.37.08,1.13,1.13,0,0,0,.73-.3,6.84,6.84,0,0,0,1-1.31l.9.59a8.48,8.48,0,0,1-1.76,2,3,3,0,0,1-1.87.59,2.12,2.12,0,0,1-1-.22,1.82,1.82,0,0,1-.72-.69,5,5,0,0,1-.54-1.47,20.73,20.73,0,0,1-.53-2.72h-.14q-1.47,2.07-2.19,3a12.3,12.3,0,0,1-1.18,1.34,3.2,3.2,0,0,1-.9.6,3.12,3.12,0,0,1-1.16.17,3,3,0,0,1-1.07-.16l.56-2.52h1c.06.39.22.59.49.59a1,1,0,0,0,.41-.11,2.54,2.54,0,0,0,.61-.5c.27-.26.64-.68,1.11-1.24S250.09,771.64,251,770.51Z" transform="translate(-76.91 -392.94)"/></g><g class="cls-28"><path d="M266.58,780.93a7.56,7.56,0,0,0,.76,0,1.18,1.18,0,0,0,.47-.16.9.9,0,0,0,.32-.37c.09-.17.19-.4.31-.69h.94l-.09,1.45c0,.49-.07,1-.1,1.45H260.6v-.52a8,8,0,0,1,.57-1.08,11.4,11.4,0,0,1,.73-1.08,14.32,14.32,0,0,1,.92-1.13c.34-.39.73-.8,1.15-1.22.63-.63,1.15-1.17,1.55-1.62a9.84,9.84,0,0,0,.94-1.21,3.42,3.42,0,0,0,.47-1,3.26,3.26,0,0,0,.13-1,3,3,0,0,0-.15-1,2.23,2.23,0,0,0-.42-.74,1.8,1.8,0,0,0-.69-.47,2.47,2.47,0,0,0-1-.17,2.44,2.44,0,0,0-1.58.51,3.26,3.26,0,0,0-1,1.48h-1.33v-2a15.45,15.45,0,0,1,2.39-.79,9.23,9.23,0,0,1,2-.24,5.85,5.85,0,0,1,1.8.24,3.43,3.43,0,0,1,1.22.64,2.36,2.36,0,0,1,.67,1,3.47,3.47,0,0,1,.21,1.22,4.27,4.27,0,0,1-.06.74,2.69,2.69,0,0,1-.19.67,3.58,3.58,0,0,1-.36.66,5.4,5.4,0,0,1-.56.71,9.33,9.33,0,0,1-.66.75l-.88.92-1,1c-.36.35-.7.7-1,1s-.63.67-.91,1a8.49,8.49,0,0,0-.68.89Z" transform="translate(-76.91 -392.94)"/></g><g class="cls-28"><text class="cls-8" transform="translate(195.5 383.85)"> </text></g></g><g class="cls-29"><g class="cls-29"><path d="M388.1,416.17c-.27-1.62-.63-3.58-1.1-5.86-.49-2.45-.81-4-1-4.54a3.14,3.14,0,0,0-.61-1.35.69.69,0,0,0-.49-.18,1.22,1.22,0,0,0-.83.36,6.84,6.84,0,0,0-1,1.25l-.9-.6a8.08,8.08,0,0,1,1.79-2,3.19,3.19,0,0,1,1.86-.59,2.73,2.73,0,0,1,1,.16,1.56,1.56,0,0,1,.56.37,2.07,2.07,0,0,1,.49.71,6.51,6.51,0,0,1,.38,1c.1.38.22.92.35,1.64.22,1.19.44,2.45.65,3.77s.38,2.54.53,3.67a32.85,32.85,0,0,0,2.29-3.81,20.56,20.56,0,0,0,1.34-3.23,8,8,0,0,0,.41-2.24,1.13,1.13,0,0,0-.28-.89,1.59,1.59,0,0,0-.94-.27l.14-.68h3.65l.38.69a46,46,0,0,1-2.86,6.18,63.44,63.44,0,0,1-4.07,6.41,31.75,31.75,0,0,1-3.65,4.41,7.16,7.16,0,0,1-2,1.33,4.26,4.26,0,0,1-1.6.3,5.67,5.67,0,0,1-.67,0,2.56,2.56,0,0,1-.59-.14l.6-2.69h1.09c0,.59.21.89.61.89a3,3,0,0,0,1.88-1A21.07,21.07,0,0,0,388.1,416.17Z" transform="translate(-76.91 -392.94)"/></g><g class="cls-29"><path d="M395.28,397.17l1.09.48a9,9,0,0,1-1.25,1.75,3.52,3.52,0,0,1-1.13.85,3.17,3.17,0,0,1-1.23.23,3.83,3.83,0,0,1-.81-.08,3.37,3.37,0,0,1-.68-.22c-.22-.1-.57-.28-1-.53l-.73-.39a3,3,0,0,0-.56-.23,2.1,2.1,0,0,0-.61-.09,1.69,1.69,0,0,0-.76.14,1.81,1.81,0,0,0-.6.48,5.38,5.38,0,0,0-.64.92l-1.08-.47a10.53,10.53,0,0,1,1.34-1.86,3.57,3.57,0,0,1,1.06-.75,3.34,3.34,0,0,1,1.29-.23,3.38,3.38,0,0,1,.75.08,3.75,3.75,0,0,1,.62.2c.19.08.51.25,1,.5.32.19.58.33.78.43a3.75,3.75,0,0,0,.6.24,2.21,2.21,0,0,0,.71.1,1.5,1.5,0,0,0,1-.35A4,4,0,0,0,395.28,397.17Z" transform="translate(-76.91 -392.94)"/></g><g class="cls-29"><text class="cls-8" transform="translate(320.8 23.2)"> </text></g></g><g class="cls-30"><g class="cls-30"><path d="M488,619.28h3.4l-.12.52a2.07,2.07,0,0,0-.59.2,1,1,0,0,0-.32.32,2.4,2.4,0,0,0-.29.67c-.1.31-.23.81-.38,1.5l-1.84,8.36c-.09.42-.15.76-.18,1a5.71,5.71,0,0,0,0,.68.84.84,0,0,0,.24.68,1.41,1.41,0,0,0,.81.24l-.12.53h-4.31l.12-.53a1.45,1.45,0,0,0,.62-.21,1.13,1.13,0,0,0,.34-.4,3.88,3.88,0,0,0,.26-.63c.08-.25.2-.73.35-1.44l1.44-6.5c.2-.89.43-1.79.69-2.68h-.15c-.23.43-.73,1.29-1.51,2.59l-4.9,8.09h-1.18l-.89-6.93c-.13-1-.28-2.29-.43-3.94h-.22c-.24,1.61-.52,3.1-.82,4.47l-1.1,5a8.06,8.06,0,0,0-.22,1.68.84.84,0,0,0,.24.68,1.41,1.41,0,0,0,.81.24l-.12.53h-3.77l.12-.53a1.45,1.45,0,0,0,.62-.21,1.13,1.13,0,0,0,.34-.4,3.88,3.88,0,0,0,.26-.63c.08-.25.2-.73.35-1.44l1.84-8.29c.07-.31.13-.61.17-.89a6,6,0,0,0,.06-.85.83.83,0,0,0-.25-.7,1.38,1.38,0,0,0-.8-.24l.12-.52h3.84l1.23,10.45Zm8.7,14.88a3.5,3.5,0,0,1-2.59-.93,3.73,3.73,0,0,1-.92-2.7,9.3,9.3,0,0,1,.26-2,7.47,7.47,0,0,1,1.12-2.67,5.39,5.39,0,0,1,1.94-1.75,5.29,5.29,0,0,1,2.53-.61,3.47,3.47,0,0,1,2.63.94,3.77,3.77,0,0,1,.91,2.7,9.19,9.19,0,0,1-.44,2.67,7.15,7.15,0,0,1-1.2,2.39,4.78,4.78,0,0,1-1.81,1.46A5.64,5.64,0,0,1,496.67,634.16ZM495.05,631a2.61,2.61,0,0,0,.49,1.75,1.85,1.85,0,0,0,1.48.56,2.41,2.41,0,0,0,1.87-.94,6.88,6.88,0,0,0,1.3-2.66,11.66,11.66,0,0,0,.47-3,2.84,2.84,0,0,0-.45-1.75,1.67,1.67,0,0,0-1.41-.59,2.54,2.54,0,0,0-2,.94,6.71,6.71,0,0,0-1.31,2.68A11.68,11.68,0,0,0,495.05,631Zm15.11,3h-4.54l.12-.53a2.13,2.13,0,0,0,.64-.17,1.11,1.11,0,0,0,.36-.33,2.89,2.89,0,0,0,.31-.71c.11-.33.23-.82.37-1.47l2.31-10.55h-1.37a2.46,2.46,0,0,0-1.07.2,2.35,2.35,0,0,0-.79.72,9.83,9.83,0,0,0-1,1.77h-1l.81-3.63h11.25l-.84,3.79h-1a15.65,15.65,0,0,0,0-1.57,2.32,2.32,0,0,0-.2-.8.84.84,0,0,0-.38-.37,1.94,1.94,0,0,0-.78-.11h-1.59l-2.34,10.63c-.06.28-.11.5-.13.66s-.05.34-.07.53a4.42,4.42,0,0,0,0,.49,1.09,1.09,0,0,0,.11.52.57.57,0,0,0,.32.27,2.55,2.55,0,0,0,.75.13Z" transform="translate(-76.91 -392.94)"/></g><g class="cls-30"><text class="cls-31" transform="translate(440.44 240.1)">(</text></g><g class="cls-30"><text class="cls-31" transform="translate(449.59 241.04)">ℋ</text></g><g class="cls-30"><text class="cls-31" transform="translate(471.04 240.1)">)</text></g><g class="cls-30"><text class="cls-32" transform="translate(480.19 241.04)"> </text></g></g><g class="cls-33"><g class="cls-33"><text class="cls-7" transform="translate(545.48 329.34)">ℎ</text></g><g class="cls-33"><path d="M643.4,720.41a8.32,8.32,0,0,1,1.94-2,3.39,3.39,0,0,1,2-.67,2.09,2.09,0,0,1,1.61.57,2.3,2.3,0,0,1,.53,1.63,5.79,5.79,0,0,1-.09.87c-.06.37-.14.78-.23,1.22s-.2.89-.3,1.35-.21.89-.31,1.28-.17.73-.23,1a3.57,3.57,0,0,0-.09.51.84.84,0,0,0,.14.56.53.53,0,0,0,.45.17,1.07,1.07,0,0,0,.39-.07,1.57,1.57,0,0,0,.39-.22,4.58,4.58,0,0,0,.44-.39c.16-.16.35-.35.55-.57l.7.67c-.33.33-.64.63-.91.87a6.46,6.46,0,0,1-.81.6,3.4,3.4,0,0,1-.78.36,3.07,3.07,0,0,1-.82.11,1.49,1.49,0,0,1-.67-.14,1.38,1.38,0,0,1-.53-.39,1.65,1.65,0,0,1-.35-.59,2.17,2.17,0,0,1-.12-.74,5.9,5.9,0,0,1,.09-.95,11.1,11.1,0,0,1,.25-1.19c.13-.44.24-.86.34-1.26s.2-.78.28-1.12.14-.65.18-.91a4.92,4.92,0,0,0,.07-.67,1.45,1.45,0,0,0-.24-.92.93.93,0,0,0-.77-.29,1.65,1.65,0,0,0-.65.15,3.43,3.43,0,0,0-.71.44,5.26,5.26,0,0,0-.69.66,6.26,6.26,0,0,0-.63.81,9.84,9.84,0,0,0-.5.9,5.22,5.22,0,0,0-.32.94l-1.13,5.09h-2l1.52-6.61a9.21,9.21,0,0,0,.19-.94,5.07,5.07,0,0,0,.06-.68c0-.5-.19-.74-.59-.74a.94.94,0,0,0-.37.07,1.85,1.85,0,0,0-.4.23,3.65,3.65,0,0,0-.45.39c-.16.15-.35.33-.55.54l-.7-.66c.34-.34.65-.64.93-.88a6.31,6.31,0,0,1,.8-.61,2.87,2.87,0,0,1,.76-.35,2.56,2.56,0,0,1,.79-.11,1.43,1.43,0,0,1,1.16.49,2,2,0,0,1,.41,1.29,2.15,2.15,0,0,1,0,.43,1.45,1.45,0,0,1-.12.42Z" transform="translate(-76.91 -392.94)"/></g><g class="cls-33"><text class="cls-8" transform="translate(576.26 329.34)"> </text></g></g><g class="cls-34"><g class="cls-34"><text class="cls-7" transform="translate(304.27 329.34)">ℎ</text></g><g class="cls-34"><path d="M398.69,718v-2a14.31,14.31,0,0,1,2.26-.76,8.19,8.19,0,0,1,2-.26,6.68,6.68,0,0,1,1.52.17,3.87,3.87,0,0,1,1.22.52,2.68,2.68,0,0,1,.81.87,2.53,2.53,0,0,1,.29,1.22,3.1,3.1,0,0,1-.19,1.14,2.8,2.8,0,0,1-.56.91,4.12,4.12,0,0,1-.93.73,10,10,0,0,1-1.27.63v.13a5.14,5.14,0,0,1,1.26.39,3.55,3.55,0,0,1,1,.68,3,3,0,0,1,.7.94,2.76,2.76,0,0,1,.25,1.19,3.8,3.8,0,0,1-.3,1.51,3.33,3.33,0,0,1-.92,1.2,4.27,4.27,0,0,1-1.5.79,6.87,6.87,0,0,1-2.09.28,10.45,10.45,0,0,1-1.91-.18,12.83,12.83,0,0,1-1.85-.5v-2.19h1.31a4.44,4.44,0,0,0,.38.87,2.17,2.17,0,0,0,.53.59,2,2,0,0,0,.69.33,3.38,3.38,0,0,0,.88.1,2.86,2.86,0,0,0,2-.62,2.47,2.47,0,0,0,.67-1.9,2.42,2.42,0,0,0-.89-2,4.23,4.23,0,0,0-2.63-.69h-.89v-1a6.87,6.87,0,0,0,1.84-.3,4.09,4.09,0,0,0,1.29-.64,2.49,2.49,0,0,0,.77-.92,2.57,2.57,0,0,0,.26-1.13,2.08,2.08,0,0,0-.58-1.54,2.32,2.32,0,0,0-1.67-.56,2.37,2.37,0,0,0-1.55.51,3.14,3.14,0,0,0-1,1.51Z" transform="translate(-76.91 -392.94)"/></g><g class="cls-34"><text class="cls-8" transform="translate(333.23 329.34)"> </text></g></g><g class="cls-35"><g class="cls-35"><text class="cls-7" transform="translate(165.98 328.34)">ℎ</text></g><g class="cls-35"><path d="M266,725.43a5.32,5.32,0,0,0,.77,0,1.13,1.13,0,0,0,.47-.15,1.17,1.17,0,0,0,.32-.37c.08-.17.19-.4.3-.69h.94l-.09,1.45c0,.49-.07,1-.1,1.45H260v-.53a9.38,9.38,0,0,1,.57-1.08c.22-.35.46-.71.73-1.08s.58-.74.92-1.13.73-.79,1.15-1.21c.63-.63,1.15-1.18,1.55-1.63a10.66,10.66,0,0,0,.94-1.2,3.42,3.42,0,0,0,.47-1,3.32,3.32,0,0,0,.13-1,2.91,2.91,0,0,0-.15-.95,1.86,1.86,0,0,0-.42-.74,1.94,1.94,0,0,0-.69-.48,2.63,2.63,0,0,0-1-.17,2.44,2.44,0,0,0-1.58.51,3.35,3.35,0,0,0-1,1.49h-1.32v-2a14.26,14.26,0,0,1,2.38-.78,9.25,9.25,0,0,1,2-.24,5.94,5.94,0,0,1,1.8.24,3.31,3.31,0,0,1,1.21.64,2.39,2.39,0,0,1,.67,1,3.53,3.53,0,0,1,.21,1.23,4.35,4.35,0,0,1-.06.74,2.81,2.81,0,0,1-.19.67,3.58,3.58,0,0,1-.36.66,6.15,6.15,0,0,1-.56.71,7.44,7.44,0,0,1-.65.75l-.89.91-1,1-1,1c-.33.35-.63.68-.91,1a8.49,8.49,0,0,0-.68.89Z" transform="translate(-76.91 -392.94)"/></g><g class="cls-35"><text class="cls-8" transform="translate(194.93 328.34)"> </text></g></g><g class="cls-36"><g class="cls-36"><text class="cls-7" transform="translate(23.87 327.04)">ℎ</text></g><g class="cls-36"><path d="M123.3,723.1a4.36,4.36,0,0,0,0,.54,2,2,0,0,0,.06.39,1.11,1.11,0,0,0,.12.27.81.81,0,0,0,.18.19.87.87,0,0,0,.33.19,3.37,3.37,0,0,0,.51.11c.21,0,.46.05.76.07s.65,0,1.06,0v.89h-8v-.89l1,0c.28,0,.51,0,.71-.07a4.56,4.56,0,0,0,.47-.1,1.8,1.8,0,0,0,.31-.14,1,1,0,0,0,.24-.2.73.73,0,0,0,.17-.27,1.73,1.73,0,0,0,.09-.39,3.22,3.22,0,0,0,0-.58v-7.27a.82.82,0,0,0-.15-.56.57.57,0,0,0-.44-.16,2.35,2.35,0,0,0-.93.32c-.41.22-.95.54-1.6,1l-.25-.47c-.07-.16-.15-.31-.23-.48l2.49-1.37c.82-.46,1.65-.91,2.5-1.37h.62c0,.38,0,.71,0,1s0,.58,0,.86v8.53Z" transform="translate(-76.91 -392.94)"/></g><g class="cls-36"><text class="cls-8" transform="translate(52.17 327.04)"> </text></g></g><g class="cls-37"><g class="cls-37"><path d="M629.47,773.81c-.14-.73-.28-1.43-.43-2.11s-.3-1.3-.46-1.88a4.94,4.94,0,0,0-.39-1.15.93.93,0,0,0-.32-.37.84.84,0,0,0-.44-.11,1.19,1.19,0,0,0-.53.13,2,2,0,0,0-.51.46,11.79,11.79,0,0,0-.74,1l-.9-.6a8.94,8.94,0,0,1,1.68-2,3,3,0,0,1,1.9-.65,2.5,2.5,0,0,1,.76.1,1.53,1.53,0,0,1,.58.3,1.92,1.92,0,0,1,.44.52,4.23,4.23,0,0,1,.37.86,10.35,10.35,0,0,1,.35,1.37c.1.54.2,1.1.28,1.68h.14c.89-1.25,1.56-2.16,2-2.74a10.22,10.22,0,0,1,1.16-1.29,3.24,3.24,0,0,1,.91-.6,3.34,3.34,0,0,1,1.16-.17,3,3,0,0,1,1.07.16l-.56,2.52h-1c-.06-.39-.22-.59-.49-.59a.85.85,0,0,0-.26,0,.94.94,0,0,0-.34.18,4,4,0,0,0-.59.54c-.26.27-.55.6-.88,1l-1,1.23-.94,1.18c.17.88.32,1.65.47,2.3s.28,1.19.4,1.62.22.77.3,1a1.91,1.91,0,0,0,.29.56,1,1,0,0,0,.31.27.87.87,0,0,0,.37.07,1.17,1.17,0,0,0,.73-.29,6.67,6.67,0,0,0,1-1.32l.9.6a8.39,8.39,0,0,1-1.76,2,3,3,0,0,1-1.86.59,2.26,2.26,0,0,1-1-.21,2,2,0,0,1-.72-.69,5.08,5.08,0,0,1-.54-1.47,22.94,22.94,0,0,1-.53-2.72h-.14c-1,1.38-1.71,2.37-2.18,3a13.14,13.14,0,0,1-1.18,1.33,2.75,2.75,0,0,1-.91.6,3.07,3.07,0,0,1-1.16.18,2.87,2.87,0,0,1-1.06-.17l.55-2.51h1c.06.39.22.58.49.58a1,1,0,0,0,.41-.1,3.07,3.07,0,0,0,.62-.5c.26-.27.63-.68,1.11-1.24S628.57,774.94,629.47,773.81Z" transform="translate(-76.91 -392.94)"/></g><g class="cls-37"><path d="M642.94,778.22a8.8,8.8,0,0,1,1.95-2,3.45,3.45,0,0,1,2-.66,2.11,2.11,0,0,1,1.61.57,2.35,2.35,0,0,1,.53,1.63,5.79,5.79,0,0,1-.09.87c-.06.37-.14.78-.24,1.22s-.19.89-.3,1.35l-.3,1.28c-.1.39-.18.73-.24,1a3.57,3.57,0,0,0-.09.51.9.9,0,0,0,.14.56.56.56,0,0,0,.46.17,1,1,0,0,0,.38-.07,1.29,1.29,0,0,0,.39-.22,4.58,4.58,0,0,0,.45-.39l.54-.57.7.67c-.33.33-.63.62-.91.87a6.41,6.41,0,0,1-.8.6,3.6,3.6,0,0,1-.78.36,3.12,3.12,0,0,1-.82.11,1.53,1.53,0,0,1-.68-.14,1.55,1.55,0,0,1-.53-.39A1.72,1.72,0,0,1,646,785a2.17,2.17,0,0,1-.13-.74,5.9,5.9,0,0,1,.09-1,11.3,11.3,0,0,1,.26-1.19l.34-1.27c.1-.4.2-.77.27-1.11s.14-.65.19-.91a4.7,4.7,0,0,0,.06-.67,1.43,1.43,0,0,0-.24-.92.91.91,0,0,0-.76-.3,1.72,1.72,0,0,0-.66.16,3.37,3.37,0,0,0-.7.44,4.75,4.75,0,0,0-.7.66,7.21,7.21,0,0,0-.62.81,6.62,6.62,0,0,0-.5.9,4.54,4.54,0,0,0-.32.94l-1.14,5.09h-2l1.53-6.61c.08-.35.15-.67.19-.95a4.82,4.82,0,0,0,.06-.68c0-.49-.2-.74-.6-.74a1,1,0,0,0-.37.08,1.8,1.8,0,0,0-.39.23c-.14.1-.29.23-.46.38l-.54.55-.7-.66c.33-.34.64-.64.92-.88a6.35,6.35,0,0,1,.81-.61,2.81,2.81,0,0,1,.75-.35,2.6,2.6,0,0,1,.79-.11,1.41,1.41,0,0,1,1.16.49,1.92,1.92,0,0,1,.41,1.29,3.22,3.22,0,0,1,0,.43,1.47,1.47,0,0,1-.13.42Z" transform="translate(-76.91 -392.94)"/></g><g class="cls-37"><text class="cls-8" transform="translate(575.8 387.15)"> </text></g></g><g class="cls-38"><g class="cls-38"><path d="M387.29,770.51c-.14-.73-.29-1.44-.43-2.11s-.3-1.31-.46-1.89a6.78,6.78,0,0,0-.39-1.15.94.94,0,0,0-.33-.37.81.81,0,0,0-.43-.1,1,1,0,0,0-.53.13,2.06,2.06,0,0,0-.52.46,9.49,9.49,0,0,0-.73,1l-.9-.6a8.5,8.5,0,0,1,1.68-2,3.14,3.14,0,0,1,2.66-.56,1.94,1.94,0,0,1,.57.3,2.09,2.09,0,0,1,.45.52,4.11,4.11,0,0,1,.37.87,12.77,12.77,0,0,1,.34,1.36c.11.54.2,1.1.29,1.69h.13c.89-1.25,1.57-2.17,2-2.75a13,13,0,0,1,1.16-1.29,2.7,2.7,0,0,1,2.07-.77,2.92,2.92,0,0,1,1.07.17l-.55,2.51h-1c-.05-.39-.21-.58-.48-.58a.88.88,0,0,0-.27,0,1.64,1.64,0,0,0-.34.18,4.55,4.55,0,0,0-.59.54q-.39.4-.87,1l-1,1.22-.94,1.18c.16.89.32,1.66.47,2.31s.28,1.18.39,1.61.22.77.31,1a2.15,2.15,0,0,0,.28.57,1,1,0,0,0,.32.26.8.8,0,0,0,.36.08,1.11,1.11,0,0,0,.73-.3,6.11,6.11,0,0,0,1-1.31l.91.59a8.7,8.7,0,0,1-1.76,2,3,3,0,0,1-1.87.59,2.09,2.09,0,0,1-1-.22,1.82,1.82,0,0,1-.72-.69,4.67,4.67,0,0,1-.55-1.47,22.12,22.12,0,0,1-.52-2.72h-.14q-1.47,2.07-2.19,3a13.48,13.48,0,0,1-1.18,1.34,3.2,3.2,0,0,1-.9.6,3.12,3.12,0,0,1-1.16.17,2.94,2.94,0,0,1-1.07-.16l.56-2.52h1c.05.39.22.59.48.59a.93.93,0,0,0,.41-.11,2.54,2.54,0,0,0,.62-.5c.27-.26.64-.68,1.11-1.24S386.39,771.64,387.29,770.51Z" transform="translate(-76.91 -392.94)"/></g><g class="cls-38"><path d="M397.26,772.47v-2a14.4,14.4,0,0,1,2.26-.77,8.63,8.63,0,0,1,2-.26,6.68,6.68,0,0,1,1.52.17,3.76,3.76,0,0,1,1.22.53,2.59,2.59,0,0,1,.81.87,2.49,2.49,0,0,1,.28,1.21,3.43,3.43,0,0,1-.18,1.15,2.66,2.66,0,0,1-.56.9,4.36,4.36,0,0,1-.93.73,11.72,11.72,0,0,1-1.28.64v.12a5.09,5.09,0,0,1,1.27.39,3.92,3.92,0,0,1,1,.68,2.94,2.94,0,0,1,.69.95,2.72,2.72,0,0,1,.26,1.18,3.58,3.58,0,0,1-.31,1.51,3.2,3.2,0,0,1-.91,1.2,4.27,4.27,0,0,1-1.5.79,6.85,6.85,0,0,1-2.09.29,10.59,10.59,0,0,1-1.92-.19,14.56,14.56,0,0,1-1.84-.49v-2.19h1.31a3.83,3.83,0,0,0,.38.86,2.32,2.32,0,0,0,.52.59,2,2,0,0,0,.69.33,3.46,3.46,0,0,0,.89.1,2.8,2.8,0,0,0,2-.62,2.88,2.88,0,0,0-.21-3.94,4.23,4.23,0,0,0-2.63-.69h-.89v-1a7.77,7.77,0,0,0,1.84-.3,4.1,4.1,0,0,0,1.29-.65,2.49,2.49,0,0,0,.77-.92,2.57,2.57,0,0,0,.26-1.13,2.06,2.06,0,0,0-.58-1.53,2.31,2.31,0,0,0-1.68-.56,2.34,2.34,0,0,0-1.54.5,3.14,3.14,0,0,0-1,1.51Z" transform="translate(-76.91 -392.94)"/></g><g class="cls-38"><text class="cls-8" transform="translate(331.8 383.85)"> </text></g></g><g class="cls-39"><g class="cls-39"><path d="M209.93,619.28h3.4l-.12.52a2.07,2.07,0,0,0-.59.2,1,1,0,0,0-.32.32,2.4,2.4,0,0,0-.29.67c-.1.31-.23.81-.38,1.5l-1.84,8.36c-.09.42-.15.76-.18,1a5.71,5.71,0,0,0,0,.68.84.84,0,0,0,.24.68,1.41,1.41,0,0,0,.81.24l-.12.53h-4.31l.12-.53a1.45,1.45,0,0,0,.62-.21,1.13,1.13,0,0,0,.34-.4,3.88,3.88,0,0,0,.26-.63c.08-.25.2-.73.35-1.44l1.44-6.5c.2-.89.43-1.79.69-2.68h-.15c-.23.43-.73,1.29-1.51,2.59l-4.9,8.09h-1.18l-.89-6.93c-.13-1-.28-2.29-.43-3.94h-.22c-.24,1.61-.52,3.1-.82,4.47l-1.1,5a8.06,8.06,0,0,0-.22,1.68.84.84,0,0,0,.24.68,1.41,1.41,0,0,0,.81.24l-.12.53h-3.77l.12-.53a1.45,1.45,0,0,0,.62-.21,1.13,1.13,0,0,0,.34-.4,3.88,3.88,0,0,0,.26-.63c.08-.25.2-.73.35-1.44l1.84-8.29c.07-.31.13-.61.17-.89a6,6,0,0,0,.06-.85.83.83,0,0,0-.25-.7,1.38,1.38,0,0,0-.8-.24l.12-.52h3.84l1.23,10.45Zm8.71,14.88a3.5,3.5,0,0,1-2.6-.93,3.73,3.73,0,0,1-.92-2.7,9.3,9.3,0,0,1,.26-2,7.47,7.47,0,0,1,1.12-2.67,5.39,5.39,0,0,1,1.94-1.75,5.29,5.29,0,0,1,2.53-.61,3.47,3.47,0,0,1,2.63.94,3.72,3.72,0,0,1,.91,2.7,9.19,9.19,0,0,1-.44,2.67,7.15,7.15,0,0,1-1.2,2.39,4.78,4.78,0,0,1-1.81,1.46A5.62,5.62,0,0,1,218.64,634.16ZM217,631a2.61,2.61,0,0,0,.49,1.75,1.85,1.85,0,0,0,1.48.56,2.41,2.41,0,0,0,1.87-.94,6.88,6.88,0,0,0,1.3-2.66,11.66,11.66,0,0,0,.47-3,2.84,2.84,0,0,0-.45-1.75,1.67,1.67,0,0,0-1.41-.59,2.54,2.54,0,0,0-2,.94,6.71,6.71,0,0,0-1.31,2.68A11.68,11.68,0,0,0,217,631Zm15.11,3h-4.54l.12-.53a2.13,2.13,0,0,0,.64-.17,1.11,1.11,0,0,0,.36-.33,2.89,2.89,0,0,0,.31-.71c.11-.33.23-.82.37-1.47l2.31-10.55h-1.37a2.46,2.46,0,0,0-1.07.2,2.35,2.35,0,0,0-.79.72,9.83,9.83,0,0,0-1,1.77h-1l.81-3.63h11.25l-.84,3.79h-1a15.65,15.65,0,0,0,0-1.57,2.32,2.32,0,0,0-.2-.8.84.84,0,0,0-.38-.37,1.94,1.94,0,0,0-.78-.11h-1.59l-2.34,10.63c-.06.28-.11.5-.13.66s0,.34-.07.53a4.42,4.42,0,0,0,0,.49,1.09,1.09,0,0,0,.11.52.57.57,0,0,0,.32.27,2.55,2.55,0,0,0,.75.13Z" transform="translate(-76.91 -392.94)"/></g><g class="cls-39"><text class="cls-31" transform="translate(162.4 240.1)">(</text></g><g class="cls-39"><text class="cls-31" transform="translate(171.55 241.04)">ℋ</text></g><g class="cls-39"><text class="cls-31" transform="translate(193 240.1)">)</text></g><g class="cls-39"><text class="cls-32" transform="translate(202.15 241.04)"> </text></g></g><line class="cls-20" x1="36.63" y1="403.71" x2="36.63" y2="421.54"/><polygon class="cls-21" points="31.65 405.17 36.63 396.54 41.62 405.17 31.65 405.17"/><line class="cls-20" x1="36.62" y1="345.99" x2="36.62" y2="363.81"/><polygon class="cls-21" points="31.64 347.45 36.62 338.81 41.61 347.45 31.64 347.45"/><line class="cls-20" x1="179.11" y1="403.71" x2="179.11" y2="421.54"/><polygon class="cls-21" points="174.13 405.17 179.11 396.54 184.1 405.17 174.13 405.17"/><line class="cls-20" x1="315.55" y1="403.71" x2="315.55" y2="421.54"/><polygon class="cls-21" points="310.56 405.17 315.55 396.54 320.53 405.17 310.56 405.17"/><line class="cls-20" x1="558.87" y1="403.87" x2="558.87" y2="421.7"/><polygon class="cls-21" points="553.88 405.33 558.87 396.7 563.86 405.33 553.88 405.33"/><line class="cls-20" x1="178.11" y1="346.18" x2="178.11" y2="364.01"/><polygon class="cls-21" points="173.13 347.64 178.11 339.01 183.1 347.64 173.13 347.64"/><line class="cls-20" x1="315.55" y1="345.99" x2="315.55" y2="363.81"/><polygon class="cls-21" points="310.56 347.45 315.55 338.81 320.53 347.45 310.56 347.45"/><line class="cls-20" x1="558.87" y1="350.35" x2="558.87" y2="368.17"/><polygon class="cls-21" points="553.88 351.81 558.87 343.17 563.86 351.81 553.88 351.81"/><line class="cls-20" x1="218.69" y1="314.18" x2="224.69" y2="314.18"/><line class="cls-22" x1="235.34" y1="314.18" x2="272.62" y2="314.18"/><line class="cls-20" x1="277.95" y1="314.18" x2="283.95" y2="314.18"/><polygon class="cls-21" points="220.15 319.17 211.52 314.18 220.15 309.19 220.15 319.17"/><line class="cls-20" x1="276.77" y1="324.67" x2="214.76" y2="324.67"/><polygon class="cls-21" points="275.31 319.68 283.95 324.67 275.31 329.66 275.31 319.68"/><line class="cls-20" x1="348.84" y1="314.57" x2="354.84" y2="314.57"/><line class="cls-22" x1="365.49" y1="314.57" x2="402.77" y2="314.57"/><line class="cls-20" x1="408.1" y1="314.57" x2="414.1" y2="314.57"/><polygon class="cls-21" points="350.3 319.56 341.66 314.57 350.3 309.58 350.3 319.56"/><line class="cls-20" x1="406.92" y1="325.06" x2="344.9" y2="325.06"/><polygon class="cls-21" points="405.46 320.08 414.1 325.06 405.46 330.05 405.46 320.08"/><line class="cls-20" x1="467.85" y1="314.18" x2="473.85" y2="314.18"/><line class="cls-22" x1="484.5" y1="314.18" x2="521.78" y2="314.18"/><line class="cls-20" x1="527.1" y1="314.18" x2="533.1" y2="314.18"/><polygon class="cls-21" points="469.31 319.17 460.67 314.18 469.31 309.19 469.31 319.17"/><line class="cls-20" x1="525.93" y1="324.67" x2="463.91" y2="324.67"/><polygon class="cls-21" points="524.47 319.68 533.1 324.67 524.47 329.66 524.47 319.68"/><line class="cls-20" x1="489.3" y1="246.15" x2="542.22" y2="299.08"/><polygon class="cls-21" points="486.8 250.71 484.22 241.08 493.86 243.66 486.8 250.71"/><line class="cls-20" x1="359.33" y1="234.47" x2="388.61" y2="234.47"/><polygon class="cls-21" points="360.79 239.45 352.16 234.47 360.79 229.48 360.79 239.45"/><line class="cls-20" x1="312.58" y1="44.26" x2="312.58" y2="62.09"/><polygon class="cls-21" points="307.59 45.72 312.58 37.09 317.56 45.72 307.59 45.72"/><rect class="cls-20" x="294.12" y="68.48" width="35.99" height="35.99"/><g class="cls-40"><g class="cls-40"><text class="cls-41" transform="translate(296.56 96.36)"> </text></g><g class="cls-40"><path d="M399.08,476.15h-5.22l0,.12a7.7,7.7,0,0,1,1.31,2.19,7.17,7.17,0,0,1,.4,2.41,9.67,9.67,0,0,1-1,4.41,7.61,7.61,0,0,1-2.85,3.16,7.88,7.88,0,0,1-4.15,1.11,5.38,5.38,0,0,1-4-1.41,5.47,5.47,0,0,1-1.38-4,10.38,10.38,0,0,1,.54-3.36,9.52,9.52,0,0,1,1.58-2.92,9,9,0,0,1,2.37-2.16,10.18,10.18,0,0,1,3.16-1.25,22.51,22.51,0,0,1,4.72-.41h5.08Zm-6.29,3.71a8,8,0,0,0-.77-3.67,7,7,0,0,0-3.83,1.24,7.8,7.8,0,0,0-2.62,3.15,10.22,10.22,0,0,0-.94,4.39,4.22,4.22,0,0,0,.41,2,2.26,2.26,0,0,0,1,1,3,3,0,0,0,1.3.29,4,4,0,0,0,2.8-1.06,7.37,7.37,0,0,0,1.9-3.2,12.93,12.93,0,0,0,.73-4.19Z" transform="translate(-76.91 -392.94)"/></g><g class="cls-40"><text class="cls-42" transform="translate(323.68 96.36)"> </text></g></g></svg>